<mxfile host="Electron" modified="2024-09-12T05:04:17.256Z" agent="Mozilla/5.0 (Windows NT 10.0; Win64; x64) AppleWebKit/537.36 (KHTML, like Gecko) draw.io/24.2.5 Chrome/120.0.6099.109 Electron/28.1.0 Safari/537.36" etag="dV6xgt9IIL-IzS1EDr1r" version="24.2.5" type="device">
  <diagram name="PÃ¡gina-1" id="0wsCxyxOZEsjjyLsrp0R">
    <mxGraphModel dx="1600" dy="774" grid="1" gridSize="10" guides="1" tooltips="1" connect="1" arrows="1" fold="1" page="1" pageScale="1" pageWidth="4000" pageHeight="4000" math="0" shadow="0">
      <root>
        <mxCell id="0" />
        <mxCell id="1" parent="0" />
        <mxCell id="Uuv-1FL1sS7lNG17RyiJ-4" style="edgeStyle=orthogonalEdgeStyle;rounded=0;orthogonalLoop=1;jettySize=auto;html=1;exitX=0.5;exitY=1;exitDx=0;exitDy=0;entryX=0.5;entryY=0;entryDx=0;entryDy=0;" edge="1" parent="1" source="Uuv-1FL1sS7lNG17RyiJ-1">
          <mxGeometry relative="1" as="geometry">
            <mxPoint x="350" y="140" as="targetPoint" />
          </mxGeometry>
        </mxCell>
        <mxCell id="Uuv-1FL1sS7lNG17RyiJ-1" value="Inicio" style="ellipse;whiteSpace=wrap;html=1;" vertex="1" parent="1">
          <mxGeometry x="290" y="40" width="120" height="80" as="geometry" />
        </mxCell>
        <mxCell id="Uuv-1FL1sS7lNG17RyiJ-2" value="left=0&lt;div&gt;&lt;/div&gt;&lt;div&gt;right=n-1&lt;/div&gt;&lt;div&gt;found=false&lt;/div&gt;" style="rounded=0;whiteSpace=wrap;html=1;" vertex="1" parent="1">
          <mxGeometry x="290" y="230" width="120" height="40" as="geometry" />
        </mxCell>
        <mxCell id="Uuv-1FL1sS7lNG17RyiJ-5" style="edgeStyle=orthogonalEdgeStyle;rounded=0;orthogonalLoop=1;jettySize=auto;html=1;exitX=0.5;exitY=1;exitDx=0;exitDy=0;entryX=0.5;entryY=0;entryDx=0;entryDy=0;" edge="1" parent="1" target="Uuv-1FL1sS7lNG17RyiJ-2">
          <mxGeometry relative="1" as="geometry">
            <mxPoint x="350" y="200" as="sourcePoint" />
          </mxGeometry>
        </mxCell>
        <mxCell id="Uuv-1FL1sS7lNG17RyiJ-40" style="edgeStyle=orthogonalEdgeStyle;rounded=0;orthogonalLoop=1;jettySize=auto;html=1;exitX=1;exitY=0.5;exitDx=0;exitDy=0;exitPerimeter=0;entryX=0.5;entryY=0;entryDx=0;entryDy=0;" edge="1" parent="1" source="Uuv-1FL1sS7lNG17RyiJ-6" target="Uuv-1FL1sS7lNG17RyiJ-39">
          <mxGeometry relative="1" as="geometry" />
        </mxCell>
        <mxCell id="Uuv-1FL1sS7lNG17RyiJ-6" value="left&amp;lt;=right" style="strokeWidth=2;html=1;shape=mxgraph.flowchart.decision;whiteSpace=wrap;" vertex="1" parent="1">
          <mxGeometry x="300" y="320" width="100" height="100" as="geometry" />
        </mxCell>
        <mxCell id="Uuv-1FL1sS7lNG17RyiJ-7" style="edgeStyle=orthogonalEdgeStyle;rounded=0;orthogonalLoop=1;jettySize=auto;html=1;exitX=0.5;exitY=1;exitDx=0;exitDy=0;entryX=0.5;entryY=0;entryDx=0;entryDy=0;entryPerimeter=0;" edge="1" parent="1" source="Uuv-1FL1sS7lNG17RyiJ-2" target="Uuv-1FL1sS7lNG17RyiJ-6">
          <mxGeometry relative="1" as="geometry" />
        </mxCell>
        <mxCell id="Uuv-1FL1sS7lNG17RyiJ-11" value="Si" style="text;html=1;align=center;verticalAlign=middle;whiteSpace=wrap;rounded=0;" vertex="1" parent="1">
          <mxGeometry x="390" y="310" width="60" height="30" as="geometry" />
        </mxCell>
        <mxCell id="Uuv-1FL1sS7lNG17RyiJ-12" value="elem, n" style="html=1;strokeWidth=2;shape=manualInput;whiteSpace=wrap;rounded=1;size=26;arcSize=11;" vertex="1" parent="1">
          <mxGeometry x="300" y="140" width="100" height="60" as="geometry" />
        </mxCell>
        <mxCell id="Uuv-1FL1sS7lNG17RyiJ-34" value="No" style="text;html=1;align=center;verticalAlign=middle;whiteSpace=wrap;rounded=0;" vertex="1" parent="1">
          <mxGeometry x="240" y="310" width="60" height="30" as="geometry" />
        </mxCell>
        <mxCell id="Uuv-1FL1sS7lNG17RyiJ-39" value="m=(left+right)/2" style="rounded=1;whiteSpace=wrap;html=1;absoluteArcSize=1;arcSize=14;strokeWidth=2;" vertex="1" parent="1">
          <mxGeometry x="440" y="410" width="100" height="40" as="geometry" />
        </mxCell>
        <mxCell id="Uuv-1FL1sS7lNG17RyiJ-44" style="edgeStyle=orthogonalEdgeStyle;rounded=0;orthogonalLoop=1;jettySize=auto;html=1;exitX=1;exitY=0.5;exitDx=0;exitDy=0;exitPerimeter=0;entryX=0.5;entryY=0;entryDx=0;entryDy=0;" edge="1" parent="1" source="Uuv-1FL1sS7lNG17RyiJ-41" target="Uuv-1FL1sS7lNG17RyiJ-43">
          <mxGeometry relative="1" as="geometry" />
        </mxCell>
        <mxCell id="Uuv-1FL1sS7lNG17RyiJ-41" value="arr[m]&amp;gt;elem" style="strokeWidth=2;html=1;shape=mxgraph.flowchart.decision;whiteSpace=wrap;" vertex="1" parent="1">
          <mxGeometry x="440" y="480" width="100" height="100" as="geometry" />
        </mxCell>
        <mxCell id="Uuv-1FL1sS7lNG17RyiJ-42" style="edgeStyle=orthogonalEdgeStyle;rounded=0;orthogonalLoop=1;jettySize=auto;html=1;exitX=0.5;exitY=1;exitDx=0;exitDy=0;entryX=0.5;entryY=0;entryDx=0;entryDy=0;entryPerimeter=0;" edge="1" parent="1" source="Uuv-1FL1sS7lNG17RyiJ-39" target="Uuv-1FL1sS7lNG17RyiJ-41">
          <mxGeometry relative="1" as="geometry" />
        </mxCell>
        <mxCell id="Uuv-1FL1sS7lNG17RyiJ-43" value="right=m-1" style="rounded=1;whiteSpace=wrap;html=1;absoluteArcSize=1;arcSize=14;strokeWidth=2;" vertex="1" parent="1">
          <mxGeometry x="560" y="580" width="100" height="40" as="geometry" />
        </mxCell>
        <mxCell id="Uuv-1FL1sS7lNG17RyiJ-50" style="edgeStyle=orthogonalEdgeStyle;rounded=0;orthogonalLoop=1;jettySize=auto;html=1;exitX=0;exitY=0.5;exitDx=0;exitDy=0;exitPerimeter=0;entryX=0.5;entryY=0;entryDx=0;entryDy=0;" edge="1" parent="1" source="Uuv-1FL1sS7lNG17RyiJ-45" target="Uuv-1FL1sS7lNG17RyiJ-49">
          <mxGeometry relative="1" as="geometry" />
        </mxCell>
        <mxCell id="Uuv-1FL1sS7lNG17RyiJ-45" value="arr[m]&amp;lt;elem" style="strokeWidth=2;html=1;shape=mxgraph.flowchart.decision;whiteSpace=wrap;" vertex="1" parent="1">
          <mxGeometry x="340" y="590" width="100" height="100" as="geometry" />
        </mxCell>
        <mxCell id="Uuv-1FL1sS7lNG17RyiJ-46" style="edgeStyle=orthogonalEdgeStyle;rounded=0;orthogonalLoop=1;jettySize=auto;html=1;exitX=0;exitY=0.5;exitDx=0;exitDy=0;exitPerimeter=0;entryX=0.5;entryY=0;entryDx=0;entryDy=0;entryPerimeter=0;" edge="1" parent="1" source="Uuv-1FL1sS7lNG17RyiJ-41" target="Uuv-1FL1sS7lNG17RyiJ-45">
          <mxGeometry relative="1" as="geometry" />
        </mxCell>
        <mxCell id="Uuv-1FL1sS7lNG17RyiJ-47" value="left=m+1" style="rounded=1;whiteSpace=wrap;html=1;absoluteArcSize=1;arcSize=14;strokeWidth=2;" vertex="1" parent="1">
          <mxGeometry x="450" y="710" width="100" height="40" as="geometry" />
        </mxCell>
        <mxCell id="Uuv-1FL1sS7lNG17RyiJ-48" style="edgeStyle=orthogonalEdgeStyle;rounded=0;orthogonalLoop=1;jettySize=auto;html=1;exitX=1;exitY=0.5;exitDx=0;exitDy=0;exitPerimeter=0;entryX=0.594;entryY=-0.025;entryDx=0;entryDy=0;entryPerimeter=0;" edge="1" parent="1" source="Uuv-1FL1sS7lNG17RyiJ-45" target="Uuv-1FL1sS7lNG17RyiJ-47">
          <mxGeometry relative="1" as="geometry" />
        </mxCell>
        <mxCell id="Uuv-1FL1sS7lNG17RyiJ-52" style="edgeStyle=orthogonalEdgeStyle;rounded=0;orthogonalLoop=1;jettySize=auto;html=1;exitX=0.5;exitY=1;exitDx=0;exitDy=0;entryX=0.5;entryY=0;entryDx=0;entryDy=0;" edge="1" parent="1" source="Uuv-1FL1sS7lNG17RyiJ-49" target="Uuv-1FL1sS7lNG17RyiJ-51">
          <mxGeometry relative="1" as="geometry" />
        </mxCell>
        <mxCell id="Uuv-1FL1sS7lNG17RyiJ-49" value="&quot;Elemento encontrado en la pos&quot; m" style="shape=parallelogram;html=1;strokeWidth=2;perimeter=parallelogramPerimeter;whiteSpace=wrap;rounded=1;arcSize=12;size=0.23;" vertex="1" parent="1">
          <mxGeometry x="240" y="700" width="100" height="60" as="geometry" />
        </mxCell>
        <mxCell id="Uuv-1FL1sS7lNG17RyiJ-51" value="found=true" style="rounded=1;whiteSpace=wrap;html=1;absoluteArcSize=1;arcSize=14;strokeWidth=2;" vertex="1" parent="1">
          <mxGeometry x="240" y="790" width="100" height="40" as="geometry" />
        </mxCell>
        <mxCell id="Uuv-1FL1sS7lNG17RyiJ-53" value="" style="endArrow=classic;html=1;rounded=0;exitX=0.5;exitY=1;exitDx=0;exitDy=0;" edge="1" parent="1" source="Uuv-1FL1sS7lNG17RyiJ-51">
          <mxGeometry width="50" height="50" relative="1" as="geometry">
            <mxPoint x="390" y="870" as="sourcePoint" />
            <mxPoint x="350" y="290" as="targetPoint" />
            <Array as="points">
              <mxPoint x="290" y="880" />
              <mxPoint x="170" y="880" />
              <mxPoint x="150" y="290" />
            </Array>
          </mxGeometry>
        </mxCell>
        <mxCell id="Uuv-1FL1sS7lNG17RyiJ-57" value="" style="endArrow=classic;html=1;rounded=0;exitX=0.5;exitY=1;exitDx=0;exitDy=0;" edge="1" parent="1" source="Uuv-1FL1sS7lNG17RyiJ-43">
          <mxGeometry width="50" height="50" relative="1" as="geometry">
            <mxPoint x="660" y="680" as="sourcePoint" />
            <mxPoint x="350" y="290" as="targetPoint" />
            <Array as="points">
              <mxPoint x="610" y="660" />
              <mxPoint x="720" y="660" />
              <mxPoint x="720" y="290" />
            </Array>
          </mxGeometry>
        </mxCell>
        <mxCell id="Uuv-1FL1sS7lNG17RyiJ-58" value="" style="endArrow=classic;html=1;rounded=0;exitX=0.5;exitY=1;exitDx=0;exitDy=0;" edge="1" parent="1" source="Uuv-1FL1sS7lNG17RyiJ-47">
          <mxGeometry width="50" height="50" relative="1" as="geometry">
            <mxPoint x="550" y="840" as="sourcePoint" />
            <mxPoint x="350" y="290" as="targetPoint" />
            <Array as="points">
              <mxPoint x="500" y="830" />
              <mxPoint x="720" y="840" />
              <mxPoint x="720" y="290" />
            </Array>
          </mxGeometry>
        </mxCell>
        <mxCell id="Uuv-1FL1sS7lNG17RyiJ-66" style="edgeStyle=orthogonalEdgeStyle;rounded=0;orthogonalLoop=1;jettySize=auto;html=1;exitX=0;exitY=0.5;exitDx=0;exitDy=0;exitPerimeter=0;entryX=0.5;entryY=0;entryDx=0;entryDy=0;" edge="1" parent="1" source="Uuv-1FL1sS7lNG17RyiJ-59" target="Uuv-1FL1sS7lNG17RyiJ-65">
          <mxGeometry relative="1" as="geometry" />
        </mxCell>
        <mxCell id="Uuv-1FL1sS7lNG17RyiJ-59" value="found" style="strokeWidth=2;html=1;shape=mxgraph.flowchart.decision;whiteSpace=wrap;" vertex="1" parent="1">
          <mxGeometry x="360" y="920" width="100" height="100" as="geometry" />
        </mxCell>
        <mxCell id="Uuv-1FL1sS7lNG17RyiJ-60" value="" style="endArrow=classic;html=1;rounded=0;exitX=0;exitY=0.5;exitDx=0;exitDy=0;exitPerimeter=0;entryX=0.5;entryY=0;entryDx=0;entryDy=0;entryPerimeter=0;" edge="1" parent="1" source="Uuv-1FL1sS7lNG17RyiJ-6" target="Uuv-1FL1sS7lNG17RyiJ-59">
          <mxGeometry width="50" height="50" relative="1" as="geometry">
            <mxPoint x="270" y="470" as="sourcePoint" />
            <mxPoint x="320" y="420" as="targetPoint" />
            <Array as="points">
              <mxPoint x="70" y="370" />
              <mxPoint x="80" y="930" />
            </Array>
          </mxGeometry>
        </mxCell>
        <mxCell id="Uuv-1FL1sS7lNG17RyiJ-61" value="Si" style="text;html=1;align=center;verticalAlign=middle;whiteSpace=wrap;rounded=0;" vertex="1" parent="1">
          <mxGeometry x="530" y="490" width="60" height="30" as="geometry" />
        </mxCell>
        <mxCell id="Uuv-1FL1sS7lNG17RyiJ-62" value="Si" style="text;html=1;align=center;verticalAlign=middle;whiteSpace=wrap;rounded=0;" vertex="1" parent="1">
          <mxGeometry x="420" y="600" width="60" height="30" as="geometry" />
        </mxCell>
        <mxCell id="Uuv-1FL1sS7lNG17RyiJ-63" value="No" style="text;html=1;align=center;verticalAlign=middle;whiteSpace=wrap;rounded=0;" vertex="1" parent="1">
          <mxGeometry x="390" y="490" width="60" height="30" as="geometry" />
        </mxCell>
        <mxCell id="Uuv-1FL1sS7lNG17RyiJ-64" value="No" style="text;html=1;align=center;verticalAlign=middle;whiteSpace=wrap;rounded=0;" vertex="1" parent="1">
          <mxGeometry x="280" y="600" width="60" height="30" as="geometry" />
        </mxCell>
        <mxCell id="Uuv-1FL1sS7lNG17RyiJ-65" value="&quot;Elemento no encontrado&quot;" style="shape=parallelogram;html=1;strokeWidth=2;perimeter=parallelogramPerimeter;whiteSpace=wrap;rounded=1;arcSize=12;size=0.23;" vertex="1" parent="1">
          <mxGeometry x="260" y="1020" width="100" height="60" as="geometry" />
        </mxCell>
        <mxCell id="Uuv-1FL1sS7lNG17RyiJ-67" value="Fin" style="strokeWidth=2;html=1;shape=mxgraph.flowchart.terminator;whiteSpace=wrap;" vertex="1" parent="1">
          <mxGeometry x="420" y="1090" width="100" height="60" as="geometry" />
        </mxCell>
        <mxCell id="Uuv-1FL1sS7lNG17RyiJ-68" style="edgeStyle=orthogonalEdgeStyle;rounded=0;orthogonalLoop=1;jettySize=auto;html=1;exitX=0.5;exitY=1;exitDx=0;exitDy=0;entryX=0;entryY=0.5;entryDx=0;entryDy=0;entryPerimeter=0;" edge="1" parent="1" source="Uuv-1FL1sS7lNG17RyiJ-65" target="Uuv-1FL1sS7lNG17RyiJ-67">
          <mxGeometry relative="1" as="geometry" />
        </mxCell>
        <mxCell id="Uuv-1FL1sS7lNG17RyiJ-69" style="edgeStyle=orthogonalEdgeStyle;rounded=0;orthogonalLoop=1;jettySize=auto;html=1;exitX=1;exitY=0.5;exitDx=0;exitDy=0;exitPerimeter=0;entryX=0.5;entryY=0;entryDx=0;entryDy=0;entryPerimeter=0;" edge="1" parent="1" source="Uuv-1FL1sS7lNG17RyiJ-59" target="Uuv-1FL1sS7lNG17RyiJ-67">
          <mxGeometry relative="1" as="geometry" />
        </mxCell>
        <mxCell id="Uuv-1FL1sS7lNG17RyiJ-70" value="Si" style="text;html=1;align=center;verticalAlign=middle;whiteSpace=wrap;rounded=0;" vertex="1" parent="1">
          <mxGeometry x="460" y="940" width="60" height="30" as="geometry" />
        </mxCell>
        <mxCell id="Uuv-1FL1sS7lNG17RyiJ-71" value="Si" style="text;html=1;align=center;verticalAlign=middle;whiteSpace=wrap;rounded=0;" vertex="1" parent="1">
          <mxGeometry x="380" y="1380" width="60" height="30" as="geometry" />
        </mxCell>
        <mxCell id="Uuv-1FL1sS7lNG17RyiJ-72" value="No" style="text;html=1;align=center;verticalAlign=middle;whiteSpace=wrap;rounded=0;" vertex="1" parent="1">
          <mxGeometry x="310" y="930" width="60" height="30" as="geometry" />
        </mxCell>
      </root>
    </mxGraphModel>
  </diagram>
</mxfile>
